PathFileType	4	(X/Y/Z)	Patient4_TMGait_0pt4_03_right_43.trc.trc
DataRate	CameraRate	NumFrames	NumMarkers	Units	OrigDataRate	OrigDataStartFrame	OrigNumFrames
75.268817204301	75.268817204301	6	33	mm	75.268817204301	124	       141
Frame#	Time	Sacral			L.Shoulder			Chest			R.Shoulder			Neck			R.ASIS			L.ASIS			R.Thigh.Superior			R.Thigh.Lateral			R.Thigh.Inferior			R.Patella			L.Thigh.Superior			L.Thigh.Lateral			L.Thigh.Inferior			L.Patella			L.Shank.Superior			L.Shank.Lateral			L.Shank.Inferior			R.Shank.Superior			R.Shank.Lateral			R.Shank.Inferior			R.Heel			R.Midfoot.Superior			R.Midfoot.Lateral			R.Toe			L.Heel			L.Midfoot.Lateral			L.Midfoot.Superior			L.Toe			L.Elbow			L.Wrist			R.Elbow			R.Wrist			
		X1	Y1	Z1	X2	Y2	Z2	X3	Y3	Z3	X4	Y4	Z4	X5	Y5	Z5	X6	Y6	Z6	X7	Y7	Z7	X8	Y8	Z8	X9	Y9	Z9	X10	Y10	Z10	X11	Y11	Z11	X12	Y12	Z12	X13	Y13	Z13	X14	Y14	Z14	X15	Y15	Z15	X16	Y16	Z16	X17	Y17	Z17	X18	Y18	Z18	X19	Y19	Z19	X20	Y20	Z20	X21	Y21	Z21	X22	Y22	Z22	X23	Y23	Z23	X24	Y24	Z24	X25	Y25	Z25	X26	Y26	Z26	X27	Y27	Z27	X28	Y28	Z28	X29	Y29	Z29	X30	Y30	Z30	X31	Y31	Z31	X32	Y32	Z32	X33	Y33	Z33	

124	57.974142857143	936.468676380828	1007.555348269245	439.133813479448	1146.192181639465	1430.624533891503	270.435923139620	1229.192975662427	1362.912721250964	442.265815327452	1128.518544567905	1439.348079059129	605.834171988009	1109.414242942225	1494.400322172435	424.930789080161	1153.042418665201	941.189088952220	578.941644098673	1164.750002661878	959.948588939659	303.357203790631	1208.627930566715	748.429395846886	556.182792651951	1138.683978875839	634.589759087798	619.359202652231	1224.494872494836	588.916625416069	541.957800809165	1242.166979501361	510.306526429991	553.344528927420	1175.117787024378	734.509561374205	333.044077842678	1070.480422242435	635.688900968695	258.132182900237	1131.990710373839	545.167150562555	325.231809501344	1119.515614784418	477.915239349040	331.255682016353	1087.713709238612	409.875327307855	319.502394638625	988.276290440477	305.363261326004	265.774584652046	1027.078444749675	188.136925071937	334.094309623869	1229.287440259272	422.316075086037	564.267902137712	1175.172127249945	308.067494300954	624.918546471554	1245.599712265850	223.364896027047	573.031699394007	1153.272962235958	43.005424543816	541.308589843000	1317.840803119687	106.749358296352	582.633123918211	1235.782239649157	38.642967748679	616.899505742131	1440.675507737283	63.898380641759	610.698937445637	891.544703644194	37.774166258434	376.505525906466	960.286233701723	34.675716764126	291.498626063706	1045.474168542741	95.971271117848	316.068951534202	1172.079146174038	43.307936033367	277.627990889899	1157.165272152692	1081.810219805578	143.817839989204	1395.929841526389	983.454511065259	160.382148553068	1023.689500490058	1109.445732484583	724.607922690347	1041.645859985470	848.174003067474	731.251613479480	
125	57.987428571429	938.217221120103	1006.421790668304	442.048389970365	1146.315384278199	1430.263087508812	274.140565616387	1229.700623931495	1362.585865912740	445.799574297238	1128.808844313796	1438.337648767909	609.604130407918	1109.289341003980	1493.688640206336	428.741415668263	1155.146111304132	940.473679562896	581.626217935130	1167.186589633587	959.915623542766	305.860182449831	1210.990558286766	747.613779692141	558.342138363047	1139.446176096379	633.489129537524	619.965764880197	1225.445340375603	588.273916120168	542.749105688400	1241.278184691985	508.592676492937	553.093612198071	1176.276292422938	733.163289080609	334.850648248514	1070.881637904771	634.649221544240	260.431791486835	1132.558263114352	543.714388515185	327.041372523020	1120.105305952956	475.876610748941	332.667824421970	1086.825573369490	408.331442816080	320.972486739310	985.550715757327	305.490545471144	267.022570455966	1022.948162073748	187.323241519415	334.592454894115	1227.548642694214	419.947759841839	563.770686712310	1171.417574761176	306.460659827515	624.168650756453	1239.830315887682	220.708883916430	571.602680016183	1143.660289433384	42.722753567633	539.530855196590	1309.073792111930	103.804456826778	580.765759331375	1225.740177978092	37.908505378604	615.699701941799	1431.330829824987	59.245060797966	609.869610694941	886.053334407290	37.538196139445	376.474923292116	954.859107302422	34.444448881489	291.542463832857	1040.137647064905	95.800270021157	316.116468718143	1166.755135881733	43.090164879030	277.579902353094	1156.841995332312	1081.489159558738	147.092215351633	1393.899010541013	978.099470117543	163.045732363832	1026.822670502992	1107.182668155192	727.717056734208	1049.244364754252	846.176994632383	733.704693434558	
126	58.000714285714	939.927963099003	1005.286303579869	445.056963201149	1146.355804631831	1429.998734022382	278.008190674274	1230.158986654300	1362.306815419942	449.468219663795	1129.064808188759	1437.307423101327	613.551406867235	1109.129365408873	1493.026338789377	432.742759313457	1157.354661628639	939.917587618484	584.355787681818	1169.573754489679	959.961015745134	308.406648950829	1213.760918947632	747.139418026330	560.311872142376	1141.087789490228	632.791209556539	620.751576046680	1227.113294885726	587.976727144745	543.542473685712	1241.253470260703	507.140499074940	552.996190963379	1177.849939003092	731.918313998350	336.684006067090	1071.897360203541	633.417395919030	262.924947727892	1134.092981326317	542.200989903752	328.969029319347	1121.813732843323	473.577991920889	334.119090417936	1086.757342825094	406.594041546211	322.545075649448	983.374322134212	305.739064209054	268.451019375058	1019.126238368174	186.532555650951	335.142155689105	1226.637822826136	417.913457035027	563.498090053738	1168.689225654331	305.242072306930	623.975332861307	1234.838014218625	218.370439219536	570.510410320516	1134.641327556362	42.511711321774	538.412508382146	1300.880608958102	101.418453435154	579.275320739953	1216.481938997872	37.405926732683	614.975280511112	1422.680746420906	55.420980590423	609.111149880263	880.568850512463	37.583263699803	376.435202061084	949.445768769936	34.358216532392	291.606122336554	1034.914372762149	95.642288740307	316.155055937165	1161.440831379683	42.779228125966	277.509552819215	1156.250996059723	1081.229467148922	150.536492608573	1391.124224167614	971.871892487303	165.516333643529	1030.321408249252	1104.762494039079	731.007783409596	1057.813490350152	844.150262642473	736.343560992846	
127	58.014000000000	941.560395867223	1004.192141447800	448.143624818706	1146.312973500398	1429.861719554597	281.999865263078	1230.559563178785	1362.087945909850	453.228620966927	1129.295884405005	1436.282086217768	617.633227460239	1108.943245823304	1492.443860053579	436.897381346364	1159.604822512788	939.537230888740	587.112281276943	1171.797166987936	960.068303624740	310.998901266733	1216.753070321665	746.962008793387	562.094483711305	1143.471492748326	632.471698248646	621.775646033259	1229.325905092007	587.962931375836	544.380747041790	1241.974191724620	505.963077339025	553.163215368383	1179.859593656935	730.849097174734	338.584821615984	1073.629524895681	632.026493129774	265.593907815893	1136.724038636258	540.684330708513	331.003425299500	1124.759004941750	471.080993175936	335.586040963040	1087.633519967175	404.722020901585	324.191525189447	981.880724903816	306.202501155803	270.041558886009	1015.718004884576	185.874423566119	335.729464027512	1226.457969201253	416.245846763084	563.531497468762	1166.949763376966	304.391109689063	624.336927491841	1230.716159061664	216.417194810054	569.806461769232	1126.542106555716	42.359679264453	537.871959668115	1293.519580875569	99.660081667381	578.211538625415	1208.298257682062	37.105292718278	614.671820534866	1414.982090189838	52.546931241857	608.489589186593	875.141676572739	38.133213945457	376.387602775839	944.080312890533	34.561063826624	291.688634356576	1029.884688676319	95.548744077197	316.173550328579	1156.141065964995	42.353466786391	277.415617556094	1155.415268601984	1081.051370886773	154.164430985520	1387.524056537230	964.795041347060	167.753461040439	1034.168837951651	1102.238315970143	734.442257344303	1067.261354268570	842.176655750602	739.175439688762	
128	58.027285714286	943.081313774716	1003.177269427821	451.307672408358	1146.174440078950	1429.875435307594	286.072164541255	1230.890996977291	1361.941946860915	457.030249933642	1129.513567864648	1435.288343079960	621.800813404883	1108.731671899383	1491.966597154853	441.163018887006	1161.839620641720	939.332200990337	589.880286269184	1173.752092234852	960.224018973391	313.637245945988	1219.789840081690	747.024692413262	563.720450167905	1146.401019269062	632.466673084280	623.062999918866	1231.888992179730	588.148728651094	545.312280759924	1243.270411323207	505.035192428485	553.665567283432	1182.309229083156	730.037940552076	340.595972044481	1076.168490836384	630.535747539228	268.402044325309	1140.557065430728	539.245382650117	333.113629701533	1129.027811517584	468.483983872619	337.030406657135	1089.570081272313	402.802445592762	325.865853591995	981.207655252624	306.992009451800	271.757036457245	1012.844313448114	185.485549161796	336.332691621894	1226.832986823854	414.921762230228	563.903157197848	1166.013498582865	303.853002037979	625.178384784380	1227.389070302608	214.854741072518	569.487726210389	1119.450383629331	42.256364112010	537.786851472559	1287.041326610701	98.508392805323	577.564995817256	1201.233089382507	36.963744279460	614.702515951538	1408.270186535278	50.598799047303	608.040964472693	869.847400637974	39.451095603916	376.337820422166	938.813343095217	35.231206430558	291.789155644146	1025.146954922565	95.592168804952	316.160860616527	1150.864668200011	41.800606225734	277.300831875214	1154.354114016037	1080.974122052104	157.983290507078	1383.001947612827	956.919756147511	169.733574255836	1038.359335888261	1099.666013623125	737.982672251026	1077.511743857240	840.345665909439	742.194107515472	
129	58.040571428571	944.465652522862	1002.270276482691	454.562497924208	1145.914838111914	1430.051670029094	290.180765173774	1231.140574509123	1361.880181371889	460.818896787839	1129.733101998345	1434.352312109193	626.004282198163	1108.489450686039	1491.612246431793	445.496424474205	1164.013943274700	939.286369690220	592.644868295076	1175.355953977723	960.422382265408	316.316378928893	1222.712146999019	747.254069843406	565.251088311686	1149.614771591362	632.680708215074	624.604890341476	1234.583104314363	588.433955216849	546.388219256741	1244.917610691956	504.301221032810	554.521478350210	1185.184562247906	729.569291724531	342.750475123172	1079.583781959662	629.027782375351	271.292948288502	1145.662979903598	537.986110530077	335.248453151619	1134.669323616839	465.917941565366	338.401125528570	1092.667015562839	400.944737017478	327.509063995096	981.489342665433	308.226637968995	273.545084010445	1010.634934123652	185.518240810288	336.925897705287	1227.525793057971	413.878965644140	564.598579972825	1165.595632192376	303.549505794201	626.376243001487	1224.662329375782	213.641740982138	569.506947745388	1113.275035465651	42.190778799405	538.020213885393	1281.343797894088	97.877280129170	577.280216777410	1195.152094600222	36.934342897224	614.966950217222	1402.421240241965	49.450599112136	607.771593399258	864.788385752513	41.816196295202	376.297949561222	933.714367576109	36.569907891602	291.909156573601	1020.813075329602	95.864706397013	316.110056487593	1145.627558770791	41.121840527346	277.173167966004	1153.077451980608	1081.010945105028	161.990251061457	1377.449185163415	948.330454002501	171.453092113770	1042.897790396083	1097.102350313727	741.596787493691	1088.508702965178	838.750980992885	745.377817310469	
